<?xml version="1.0" encoding="utf-8"?>
<!-- Generator: Adobe Illustrator 24.1.1, SVG Export Plug-In . SVG Version: 6.00 Build 0)  -->
<svg version="1.1" id="Layer_1" xmlns="http://www.w3.org/2000/svg" xmlns:xlink="http://www.w3.org/1999/xlink" x="0px" y="0px"
	 viewBox="0 0 711 836.6" style="enable-background:new 0 0 711 836.6;" xml:space="preserve">
<style type="text/css">
	.st0{fill:#DDDDDD;}
	.st1{opacity:0.3;fill:none;stroke:#333333;stroke-width:5.2806;stroke-miterlimit:10;enable-background:new    ;}
</style>
<g id="Layer_2_1_">
	<g id="Layer_1-2">
		<rect y="140.6" class="st0" width="711" height="697"/>
		<g>
			<path d="M257.6,212.3h-87.1c-3.5,0-3.5,0-3.5-3.5c0-2.5,0.1-5,0-7.5c0-1.5,0.6-2.1,2-2c0.6,0,1.2,0,1.9,0h173.5c4,0,4,0,4,3.9
				c0,2.1-0.1,4.3,0,6.4c0.1,2.1-0.7,2.8-2.8,2.7c-12.5-0.1-25.1,0-37.7,0L257.6,212.3z"/>
			<path d="M291.2,93.9c-17.9,0-35.8-0.1-53.7,0.1c-2.6,0-3.5-0.8-3.2-3.3c0.2-2.6,0.2-5.2,0-7.8c-0.1-1.5,0.6-2.1,2-2
				c1.3,0.1,2.7,0,4,0H345c3.6,0,3.6,0,3.6,3.6c0,2.3-0.2,4.7,0,7s-1.1,2.5-2.9,2.5c-14.4,0-28.9,0-43.2,0L291.2,93.9L291.2,93.9z"
				/>
			<path d="M300,159.7c15.1,0,30.2,0.1,45.4,0c2.4,0,3.5,0.5,3.2,3.1c-0.2,2.6-0.2,5.2,0,7.8c0.1,1.8-0.7,2.5-2.4,2.3
				c-0.4-0.1-0.9,0-1.3,0c-30,0-60,0-90,0c-3.6,0-3.6,0-3.6-3.5c0.1-2.1,0.1-4.3-0.1-6.4c-0.3-2.7,0.9-3.3,3.4-3.3
				C269.8,159.8,284.9,159.7,300,159.7z"/>
			<path d="M325.7,133.4c-6.5,0-13.2-0.1-19.7,0c-1.9,0-2.7-0.6-2.6-2.6c0.2-2.6,0.2-5.2,0-7.8c-0.1-2.1,0.6-2.8,2.7-2.8
				c10.8,0.1,21.5,0,32.3,0c2.7,0,5.3,0.1,8,0c1.6,0,2.3,0.6,2.2,2.2c-0.1,2.8-0.1,5.5,0,8.3c0.1,2-0.6,2.6-2.6,2.6
				C339.2,133.3,332.4,133.4,325.7,133.4z"/>
			<path d="M367.3,163.1c0.1-10.3,9.6-16.4,18.5-11.9c2.2,1,3.9,2.9,4.7,5.3c0.3,0.8,1.4,2.3-0.1,2.7c-1.5,0.4-3.2,1-4.4-0.8
				c-2.4-3.8-4.6-4.8-8.2-4c-2.9,0.7-4.8,3.3-5.3,7.3c-0.3,2.8,0.1,5.6,1.8,7.9c2.3,3.1,6.5,3.6,9.5,1.2c0.8-0.7,1.5-1.4,1.9-2.4
				c1-1.7,2.9-2.4,4.6-1.8c1.1,0.5,0.6,1.3,0.4,2c-1.1,4-4.2,7-8.1,7.6c-4.8,1-9.1,0-12.4-3.8C368,169.9,367.3,166.6,367.3,163.1z"
				/>
			<path d="M367.3,84.2c0.1-5.1,1.9-9.3,6.5-11.8c4.1-2.2,9.1-2,12.9,0.5c1.7,0.9,3,2.5,3.6,4.4c0.3,0.9,1.6,2.4-0.1,3
				c-1.5,0.5-3.3,0.9-4.4-1.2c-1.7-3.1-3.9-4.2-7.1-3.8c-2.9,0.4-5.3,2.7-5.9,5.8c-0.7,2.9-0.5,5.9,0.9,8.6c1.2,2.5,3.7,3.9,6.3,3.6
				c2.7-0.1,4.8-1.3,5.7-4c0.6-1.5,3.4-2.4,4.7-1.5c1,0.6,0.4,1.4,0.2,2.1c-1.3,4.3-4.4,6.9-8.7,7.6c-4.9,0.8-9.2-0.6-12.2-4.8
				C368,90.2,367.2,87.2,367.3,84.2z"/>
			<path d="M403.8,97.8c-3.9,0.1-7.4-2.2-9.1-5.9c-1.8-4.2-0.8-9.5,2.3-12.4c2.9-2.7,7.1-3.4,10.7-1.9c3.6,1.7,5.7,5.6,5.4,9.7
				c-0.2,1.5-1.1,1.5-2.3,1.5c-3.3,0-6.5,0.1-9.9,0c-2.2-0.1-2.2,1-1.4,2.5c1.5,2.5,4.8,3.4,7.2,1.8c0.1,0,0.2-0.1,0.2-0.2
				c0.4-0.3,0.7-0.8,1.2-1.1c1.3-0.8,3.1-0.9,4-0.1c0.9,0.8-0.4,2.3-1.2,3.1C409.1,97.1,406.5,97.8,403.8,97.8z M403.7,85.1
				c0.9,0,1.8,0,2.7,0c0.6,0,1.3,0.2,1.7-0.5c0.4-0.7-0.2-1.4-0.6-2c-1.5-2.1-4.8-2.5-6.8-0.6c-0.7,0.7-1.6,1.5-1.2,2.5
				c0.4,0.9,1.5,0.5,2.4,0.6C402.5,85.1,403,85.1,403.7,85.1z"/>
			<path d="M462.4,97.8c-3.9,0.1-7.4-2.2-9.1-5.9c-1.8-4.1-0.8-9.6,2.3-12.4c2.9-2.7,7-3.5,10.7-1.9c3.6,1.7,5.8,5.5,5.5,9.6
				c-0.2,1.5-1.1,1.6-2.2,1.6c-3.3,0-6.5,0.1-9.9,0c-2.1,0-2.3,0.9-1.5,2.5c1.5,2.6,4.8,3.4,7.2,1.8c0.1,0,0.1-0.1,0.2-0.1
				c0.3-0.3,0.6-0.6,1-0.9c1.4-1,3.2-1.2,4.2-0.3c1.1,1.1-0.5,2.4-1.3,3.3C467.8,96.9,465.3,97.8,462.4,97.8z M461.9,85.1
				c0.6,0.1,1.1,0.1,1.6,0c1.1-0.3,2.9,0.8,3.1-0.9c0.2-1.7-1.3-2.9-3-3.1c-1.4-0.4-2.9-0.1-4,0.8c-0.8,0.7-1.9,1.5-1.5,2.6
				c0.3,1.1,1.7,0.5,2.6,0.7C461,85.1,461.4,85.1,461.9,85.1z"/>
			<path d="M481.5,208.2c0,1.7,0,3.4,0,5.1c0,0.8,0.2,1.8-0.7,2.1c-0.9,0.3-2.2,0.7-2.9-0.4c-0.7-1.1-1.3-0.7-2.1-0.1
				c-2.3,1.7-5.3,1.9-7.8,0.6c-2.3-0.9-3.6-3.3-3.6-5.8s1.5-4.6,3.6-5.4c2-0.8,4.1-1.1,6.3-0.9c0.8,0,1.9,0.5,2.3-0.7
				s-0.1-2.5-1.1-3.1c-1.6-1.2-3.8-0.9-5.1,0.6c-0.4,0.4-0.6,1-1,1.3c-1.1,0.4-2.4,0.7-3.3-0.1c-0.9-0.8-0.2-1.8,0.2-2.6
				c1.5-2.7,5.1-3.9,9.3-3.1c3.2,0.6,5.3,2.5,5.7,5.9c0.2,2.3,0.2,4.7,0.3,7L481.5,208.2z M473.2,206.7c-2,0.2-4,0.5-4,3
				c0,2,1.5,2.6,3.2,2.7c2.3,0,4.1-1.7,4-3.6C476.4,206.3,474.5,207.1,473.2,206.7L473.2,206.7z"/>
			<path d="M414.2,166.4c0,6.2-4.4,10.6-10.3,10.5c-5.9-0.1-10-4.5-9.9-10.6s4.2-10.4,10.1-10.4C409.9,156,414.2,160.1,414.2,166.4z
				 M409.3,166.1c-0.1-3.9-2.1-6.4-5.3-6.4s-5.3,2.6-5.3,6.4s2.1,6.4,5.3,6.5C407.2,172.8,409.3,170.2,409.3,166.1z"/>
			<path d="M422.4,205.9c0-6.3,4-10.5,9.9-10.5s10.3,4.3,10.2,10.7c-0.1,6.1-4.3,10.4-10.2,10.3S422.4,212.1,422.4,205.9z
				 M437.6,206c0.1-3.8-1.9-6.3-4.8-6.5c-3.6-0.3-5.7,2.1-5.7,6.4c0,4,2,6.4,5.2,6.4S437.6,209.7,437.6,206L437.6,206z"/>
			<path d="M382.4,126.8c0-6.2,4.1-10.5,9.9-10.5s10.2,4.4,10.2,10.6c0,6.2-4.2,10.5-10.3,10.4C386.1,137.1,382.4,133.2,382.4,126.8
				z M387.1,126.9c0,4,1.9,6.4,5.3,6.4s5.3-2.5,5.3-6.4c0-3.9-2.1-6.6-5.4-6.5S387.1,122.9,387.1,126.9L387.1,126.9z"/>
			<path d="M528.7,205.9c0,6.3-4.2,10.5-10.3,10.5c-5.9-0.1-9.9-4.3-9.9-10.5c0-6.2,4-10.4,10-10.5
				C524.5,195.4,528.7,199.6,528.7,205.9z M523.8,205.5c0-0.3-0.1-0.9-0.2-1.4c-0.4-2.9-2.2-4.7-4.8-4.7c-2.7-0.1-4.5,1.4-5.3,4.2
				c-0.5,1.9-0.3,3.7,0.4,5.5c1.1,2.6,4,3.9,6.5,2.8c0.1-0.1,0.2-0.1,0.3-0.2C523.2,210.4,523.7,208.2,523.8,205.5L523.8,205.5z"/>
			<path d="M378.8,205.8c0-2.5,0-5,0-7.5c0-0.8-0.2-2,0.9-2.2c1-0.3,2.3-0.6,2.8,0.7c0.8,1.4,1.4,0.8,2.3,0.1c2.3-1.7,5.3-2,7.8-0.6
				c2.7,1.3,3.6,3.6,3.7,6.4c0,3.6-0.1,7.3,0.1,11c0.1,1.8-0.7,2.3-2.4,2.3s-2.4-0.4-2.4-2.3c0.1-3.2,0.1-6.4,0-9.7
				c-0.1-3-1.4-4.3-4-4.3s-4,1.4-4,4.2c-0.2,3.2-0.1,6.4,0,9.7c0,1.7-0.5,2.4-2.3,2.4s-2.6-0.5-2.5-2.5
				C378.9,210.7,378.8,208.2,378.8,205.8z"/>
			<path d="M532.5,205.7c0-2.5,0-5,0-7.5c0-0.8-0.2-2,1-2.2c1-0.2,2.3-0.5,2.8,0.7c0.6,1.2,1.1,0.9,2,0.3c2.3-2,5.7-2.2,8.2-0.7
				c2.8,1.4,3.6,4,3.5,7c0,3.3-0.1,6.6,0,9.9c0,1.7-0.2,2.6-2.3,2.6s-2.6-0.8-2.5-2.7c0.1-3.1,0.1-6.1,0-9.1c-0.1-3-1.4-4.4-3.8-4.5
				c-2.7-0.1-4.1,1.4-4.2,4.4c-0.1,3.2-0.1,6.4,0,9.7c0.1,1.9-0.7,2.2-2.4,2.2s-2.5-0.3-2.4-2.2
				C532.6,210.9,532.5,208.2,532.5,205.7z"/>
			<path d="M401,205.7c0-2.5,0-5,0-7.5c0-0.8-0.2-2,1-2.2c1-0.2,2.3-0.5,2.8,0.8c0.6,1.4,1.2,0.8,2,0.2c2.3-1.9,5.4-2.1,8-0.7
				c2.8,1.4,3.7,3.9,3.7,6.9c0,3.5-0.1,7,0,10.4c0.1,1.9-0.7,2.2-2.4,2.2s-2.5-0.3-2.4-2.2c0.1-3.2,0.1-6.4,0-9.7
				c-0.1-3-1.4-4.3-3.9-4.4c-2.7,0-4,1.4-4.1,4.5c-0.1,3.1-0.1,6.3,0,9.4c0,1.6-0.3,2.5-2.2,2.4c-1.7-0.1-2.7-0.3-2.6-2.3
				C401.1,210.8,401,208.2,401,205.7z"/>
			<path d="M417.1,87.2c0-2.4,0-4.8,0-7.2c0-0.8-0.4-2,0.8-2.3s2.3-0.7,3.1,0.7c0.6,1.1,1.1,0.8,1.9,0.3c2.4-2,5.8-2.4,8.5-0.7
				c2.7,1.5,3.5,4.1,3.4,7c-0.1,3.4-0.1,6.8,0,10.2c0,1.7-0.7,2.1-2.3,2.1c-1.5,0-2.7-0.1-2.6-2.1c0.1-3.2,0.1-6.4,0-9.7
				c-0.1-3-1.3-4.4-3.8-4.5c-2.6-0.1-4.1,1.4-4.2,4.4c-0.1,3.2-0.1,6.4,0,9.7c0.1,1.9-0.8,2.2-2.4,2.2s-2.5-0.4-2.4-2.3
				C417.2,92.3,417.1,89.7,417.1,87.2z"/>
			<path d="M417.7,163.6c0-1.5,0.1-3.1,0-4.6c-0.1-1.8,0.2-2.8,2.3-2.8s2.5,1,2.4,2.8c-0.1,3-0.1,5.9,0,8.8c0.1,3.2,1.3,4.7,3.8,4.7
				s3.6-1.4,3.7-4.8c0.1-3.1,0.1-6.3,0-9.3c-0.1-1.9,0.9-2.2,2.5-2.2s2.3,0.4,2.3,2.1c-0.1,3.6,0.1,7.1-0.1,10.7
				c-0.2,4.7-3.7,7.7-8.6,7.7s-8.2-3.1-8.4-7.8C417.7,167.2,417.8,165.5,417.7,163.6L417.7,163.6z"/>
			<path d="M369.7,128.5c0-1.6,0-3.2,0-4.8c0-1.4,0.3-2.9-1.9-3.4c-1.5-0.3-1.1-1.9,0.1-2.4c1.5-0.7,1.8-1.6,1.9-3.1
				c0.4-4.8,4-7.4,8.8-6.4c1.4,0.3,1.9,1,1.9,2.4c-0.1,1.6-1.1,1.5-2.3,1.4c-0.7-0.1-1.4-0.1-2.1,0.1c-1.5,0.5-1.6,1.7-1.6,3.1
				c0,1.5,1.1,1.4,2.1,1.4c0.6,0,1.1,0,1.6,0c1.1,0,2.1,0.1,2.1,1.7s-0.6,2-2.1,2c-3.7,0.2-3.7,0.3-3.7,4.1c0,3.3-0.1,6.6,0,9.9
				c0.1,2-1,2.2-2.5,2.2s-2.5-0.4-2.4-2.3C369.7,132.5,369.7,130.6,369.7,128.5z"/>
			<path d="M446.3,195.9c1.6-0.3,2.3,0.7,2.9,2.2c1.1,3.4,2.4,6.7,3.7,10.1c0.2,0.5,0.1,1.2,0.8,1.2s0.7-0.7,0.9-1.2
				c1.1-3.3,2.4-6.5,3.3-9.9c0.7-2.5,2.3-2.5,4.3-2.4c1.1,0.1,1.4,0.7,1,1.6c-2.3,5.7-4.7,11.4-7,16.9c-0.6,1.4-1.9,0.9-3,1.1
				c-1.1,0.2-2.3-0.5-2.6-1.7c-2-5.2-4.2-10.3-6.3-15.2C443.1,196.1,443.3,195.9,446.3,195.9z"/>
			<path d="M455.7,166.1c0-1.4,0-2.7,0-4c0.2-0.8-0.4-1.7-1.2-1.9c-0.1,0-0.1,0-0.2,0c-2-0.5-1.6-1.7-0.3-2.5c1.7-1.1,3.1-2.7,4-4.6
				c0.3-0.8,1.1-1.1,1.8-0.8c0.6,0.3,1,0.9,0.7,1.5c-0.3,2.5,1,2.9,3,2.7c1.4-0.2,2.2,0.3,2.1,2s-0.8,2-2,1.8
				c-2.6-0.3-3.2,0.9-3.1,3.2c0.2,2.1,0.1,4.3,0,6.4c0,2.3,1.1,3,3.2,2.6c0.8-0.2,2-1.3,2.3,0.6c0.2,1.2,0.3,2.5-1.3,3.1
				c-4.1,1.8-8.4-0.5-8.9-5c-0.1-1.7-0.1-3.4,0-5.1L455.7,166.1z"/>
			<path d="M493.4,216c-4.1,0-6.4-2-6.6-5.8c-0.2-2.8-0.1-5.5-0.1-8.3c0-1.2,0.1-2.2-1.6-2.5c-1.4-0.2-1.3-1.6-0.4-2.2
				c1.9-1.3,3.5-3.1,4.5-5.2c0.3-0.6,1-0.8,1.6-0.6c0.8,0.2,0.8,0.9,0.7,1.5c-0.3,2.4,0.8,3.1,2.9,2.8c1.4-0.2,2.1,0.3,2.1,2
				c0,1.8-1.1,1.9-2.3,1.7c-2.1-0.3-2.9,0.6-2.7,2.7c0.2,2.3,0.1,4.7,0,7c-0.1,2.3,1.1,3.1,3.2,2.6c0.8-0.2,2-1.2,2.3,0.5
				c0.2,1.4,0.4,3-1.7,3.3C494.6,215.7,493.8,215.9,493.4,216z"/>
			<path d="M446.7,97.6c-4.1,0-6.4-2-6.5-5.7c-0.2-2.2,0-4.5-0.1-6.7c-0.1-1.7,0.8-3.8-2-4.4c-1.1-0.3-0.6-1.6,0.2-2.1
				c1.8-1.2,3.2-2.8,4.2-4.7c0.2-0.7,1.1-1.1,1.7-0.8c0.6,0.2,1,0.8,0.7,1.5l0,0c-0.3,2.5,0.7,3.2,3,3c1.3-0.2,2,0.3,2,1.8
				s-0.7,2-2,1.8c-2.7-0.4-3.2,0.9-3,3.2c0.2,2.3,0,4.5,0,6.7c0,2.2,1.1,2.8,3.2,2.5c0.8-0.2,1.9-1.3,2.3,0.3c0.3,1.3,0.6,3-1.5,3.4
				C448,97.3,447.1,97.5,446.7,97.6z"/>
			<path d="M373.7,202.7c0,3.6-0.1,7.1,0,10.7c0.1,2-0.8,2.4-2.5,2.3c-1.5,0-2.5-0.3-2.4-2.1c0.1-7.2,0.1-14.3,0-21.5
				c0-2,1.1-2,2.5-2s2.5,0.3,2.4,2.1C373.6,195.6,373.7,199.2,373.7,202.7z"/>
			<path d="M443.7,159.4c1.6-1.8,3.2-3.1,5.3-3.1c1.5-0.1,1.9,0.8,1.8,2s0.6,2.5-1.5,2.9c-4.8,0.8-5.2,1.4-5.3,6.3
				c0,2.1-0.1,4.3,0,6.4c0.1,1.8-0.5,2.5-2.4,2.5s-2.5-0.6-2.4-2.5c0.1-5,0-10,0.1-14.9c0-1-0.4-2.3,1.3-2.5
				c1.5-0.2,2.4,0.4,2.7,1.9C443.4,158.7,443.5,159,443.7,159.4z"/>
			<path d="M480.2,80.3c1.3-1.4,2.3-2.6,4-2.8c1.3-0.2,2.8-0.8,3,1.4c0.1,1.6,0.3,3.1-2.2,3.3c-3.4,0.3-4.4,1.5-4.5,5
				c-0.1,2.5-0.1,5.2,0,7.7c0.1,1.8-0.6,2.3-2.3,2.3s-2.6-0.4-2.5-2.4c0.1-4.9,0-9.8,0.1-14.6c0-1.1-0.4-2.5,1.4-2.6
				c1.5-0.2,2.4,0.3,2.6,1.9C479.7,79.6,479.8,79.9,480.2,80.3z"/>
			<path d="M410.9,119.9c1.4-1.8,2.8-3,5-3.1c1.3-0.1,2.1,0.3,1.9,1.8c-0.2,1.2,0.7,2.7-1.5,3.1c-4.7,0.7-5.1,1.3-5.1,6
				c0,2.3-0.1,4.7,0,7c0.1,2-1.1,2.1-2.6,2.1s-2.3-0.3-2.3-2.1c0.1-5,0-10,0-14.9c0-1-0.6-2.5,1.2-2.7c1.1-0.3,2.3,0.3,2.6,1.4
				c0,0.2,0.1,0.3,0.1,0.4C410.5,119.2,410.6,119.5,410.9,119.9z"/>
			<path d="M504.9,205.9c0,2.6-0.1,5.2,0,7.8c0.1,2-1.1,2-2.6,2s-2.3-0.3-2.3-2c0.1-5.3,0.1-10.5,0-15.7c0-1.8,1.1-2,2.4-2
				s2.5,0.2,2.4,2C504.8,200.5,504.9,203.3,504.9,205.9z"/>
			<path d="M502.4,187.4c1.9,0.1,3.2,0.9,3.2,2.9c-0.1,2-1.5,2.8-3.2,2.7s-2.9-0.8-3-2.7C499.3,188.3,500.6,187.6,502.4,187.4z"/>
		</g>
	</g>
</g>
<polyline class="st1" points="152.1,147.9 5,147.9 5,829.9 704,829.9 704,149.6 562,149.6 "/>
</svg>
