<?xml version="1.0" encoding="utf-8"?>
<!-- Generator: Adobe Illustrator 24.1.1, SVG Export Plug-In . SVG Version: 6.00 Build 0)  -->
<svg version="1.1" id="Layer_1" xmlns="http://www.w3.org/2000/svg" xmlns:xlink="http://www.w3.org/1999/xlink" x="0px" y="0px"
	 viewBox="0 0 711 836.6" style="enable-background:new 0 0 711 836.6;" xml:space="preserve">
<style type="text/css">
	.st0{fill:#DDDDDD;}
	.st1{fill:#1E3A82;}
	.st2{fill:#5A70A4;}
	.st3{fill:#B7BFD5;}
	.st4{fill:#B1BBD4;}
	.st5{fill:#BCC5D9;}
	.st6{fill:#F2F2F2;}
	.st7{fill:#B6C0D6;}
	.st8{fill:#475F9A;}
	.st9{fill:#B7C0D7;}
	.st10{fill:#A8B3CE;}
	.st11{fill:#EEF1F4;}
	.st12{fill:#5E72A6;}
	.st13{fill:#BEC6DB;}
	.st14{fill:#476099;}
	.st15{fill:#6173A5;}
	.st16{opacity:0.3;fill:none;stroke:#333333;stroke-width:5.2289;stroke-miterlimit:10;enable-background:new    ;}
</style>
<g id="Layer_1-2-2">
	<rect x="-1" y="140.6" class="st0" width="711" height="697"/>
	<g>
		<path class="st1" d="M280.3,35.5c-15,9.9-24,24-26.9,42.4c-2.5,16.1,0.7,31,9.4,44.5c0.5,0.8,0.9,1.8,1.8,2.2
			c0.5-0.6,1.2-1.4,0.6-2c-1.9-1.8-2.2-4.5-3.7-6.7c-2.6-3.7-4.5-7.7-4.2-12.4c0-1.2-0.3-2.3-1-3.3c-0.8-1.1-1.3-2.3-1.4-3.8
			c0-1.3-0.7-3,0.6-3.9c1.5-0.8,3.2-0.7,4.5,0.4c-2.3,1.4-2.4,3-0.4,4.5c0.9,0.7,0.9,1.9,0.9,3v8.5c-0.1,1.4,0.2,2.8,0.6,4.1
			c0.5,1.3,1.2,2.2,2.3,0.7c0.9-1.1,1.8-1.4,2.9-0.6c1.1,0.9,0.8,1.9,0.1,2.9c-0.9,1.1-0.8,2.8,0.2,3.8l0,0l0,0
			c0.4,0.6,0.6,1.2,0.6,1.9c0,2.4,0.9,3.8,3.1,5s3.4,4,4.5,7c0,0-0.8-0.1-0.4-0.2c0.1,0,0.1-0.1,0-0.3c-2.1-3.4-4.8-6.3-8-8.4
			c-0.6-0.4-1.2-1-1.9-0.2c4.6,7.3,11,12.5,18.1,16.9c0.8,0.4,1.8,0.6,2.3,1.6c-0.4,1-1.3,0.6-1.9,0.6h-20.5c-1.8,0-2.4,0.4-2.4,2.4
			c0.1,36.3,0.1,72.7,0,109c0,2,0.6,2.6,2.4,2.4c8.1-0.1,16.3-0.1,24.4,0c2.2,0,2.9-0.6,2.9-3c-0.1-18.2-0.1-36.3,0-54.5
			c0-0.8-0.4-1.8,0.3-2.6c1-0.1,1.2,0.9,1.7,1.3c15.7,18.9,31.3,37.6,46.9,56.6c1,1.4,2.7,2.1,4.3,2c7.3-0.1,14.6-0.1,21.9,0
			c2.3,0,3-0.7,3-3.1c-0.1-35.3-0.1-70.5-0.1-105.7v-3.3c1.6,0.8,1.7,2.2,2.2,3.3c11.9,25.6,23.8,51.4,35.7,77c0.7,1.3,1,3,0.9,4.5
			c0,8,0.1,16-0.1,24c-0.1,2.9,0.9,3.4,3.4,3.4c7.7-0.1,15.3-0.1,23,0c2.6,0.1,3.6-0.6,3.5-3.6c-0.2-7.9-0.1-15.8-0.1-23.7
			c-0.1-1.2,0.1-2.3,0.5-3.4c3.3-7.1,6.6-14.1,10-21.2c1-2.1,2-4.2,2.9-6.4l24.3-52.6c1.4-3,1.4-3-1.7-3h-23.8
			c-0.1-1.4,1-1.4,1.7-1.8c11.5-6.5,20.4-15.5,24-29.3c0.8-3,1.2-6,1.2-9.1V35.2c0-2.1-0.5-3-2.6-2.9c-8.1,0.1-16.2,0.1-24.4,0
			c-2.3,0-2.8,0.9-2.8,3.1c0.1,20.1,0,40.1,0,60.1c0,7.4-2.7,13.4-8.8,17.3c-5.9,4-12.9,5.5-19.7,4.3c-3.6-0.6-7-1.8-10.1-3.8
			c-6.6-4-9.7-10.1-9.7-18.1c0-19.9,0-39.6,0.1-59.5c0-2.8-0.6-3.8-3.4-3.7c-7.7,0.2-15.5,0-23.2,0.1c-1,0-2.1-0.3-3,0.4
			c-0.6,1.6-0.3,3.1-0.3,4.7c-0.1,7.4,0,14.9,0,22.4c0.2,1.1,0,2.2-0.4,3.2c-1.1-0.4-0.5-1.8-1.1-2.4c-1.7-4-3.1-8.2-6.1-11.3
			c-0.8,0.9-0.4,2.2-1.2,3.2c-1,1.1-0.6,2.7,1.2,2.7c2,0,2.3,1.3,2.2,2.9c-0.1,1.3,0.5,2.7,1.5,3.4c1.5,1.2,1.3,3.1,0.9,4.9
			c-0.3,1.3-1.2,2.8,0.5,3.9c-0.7,0.3-1.5,0.4-2.2,0.3c-1.5,0.1-2.2-0.6-2.1-2.2c0.1-2.9-0.8-5.8,1-8.5c0.9-1.3,0-2.4-1.5-2.7
			c-1.5-0.2-2.9-0.3-4.4-0.1c-0.6,0.1-1.7,0-1.3-0.9c1.4-3.1-0.7-5.7-0.9-8.5c-0.1-0.8-0.4-1.6,0.3-2.4c1.3,1.1,2.4,2.2,2.3,4.1
			c-0.1,1.1-0.5,2.7,0.9,3.1c1.4,0.4,1.9-1.1,2.5-2.2c0.1-0.3,0.3-0.6,0.5-0.8c-4.4-6.9-10.5-11.7-17.4-15.3
			c-0.5-0.3-1.1-0.3-1.6-0.2c0.6,2.2,2.2,4,4.2,4.5c2.1,0.4,3.9,1.8,5,3.8c-3.5-3.3-6.3,1.8-10,1c1.1-1.1,2.8-1.6,1.7-3.6
			s-1.8-3.8-4.6-3c-3,0.9-6-0.9-9.1-0.7c-1.4,0.1-2.6-3.6-1.7-4.9c0.7-1.1,1.3,0,1.8,0.3c0.7,0.6,1.5,1,2.3,0.2s0.3-1.7-0.3-2.3
			c-2.4-1-5-1.6-7.6-1.7c-1.2,0.6-2,2.6-3.7,1.4c0.6-1,2.9,0.7,2.5-1.8c-5.9-0.6-11.8-0.6-17.7-0.1c-1.2,1.9-2.8,3.4-2.5,6.1
			c0.1,1.4-0.6,2.7-2.1,0.9c-1-1.2-1.8-1.2-2.4,0.4c-0.6,1.7-4.1,2.3-5.5,1c-2.4-2.2-2.4-2.2-4.8,0.1c-0.1,0.1-0.3,0.1-0.6,0.1
			c-1.1-0.8,0.7-1.8,0-2.6C283.8,33.2,282.2,34.8,280.3,35.5z"/>
		<path class="st2" d="M322.4,27.9c2.7-0.1,5.4,0.6,7.9,1.8c3.4,1.8,7,3.1,10.6,4.1h1.7c-5.9-4-12.6-5.9-19.4-6.8
			c-14.1-2-27.7-0.7-40.5,6.8c-0.9,0.6-1.9,0.8-2.5,1.9c2.1-0.1,3.6-2.1,5.7-2.3c3.5-0.6,6.6-2.6,10.1-3.4c2.4-0.6,5-0.4,7.3-1.9
			c4.7-1.2,9.5-0.4,14.3-0.6c1.4,0,3-0.4,4.3,0.6C322.1,28.3,322.3,28.3,322.4,27.9z"/>
		<path class="st3" d="M407,113.2c5,4,10.8,5,16.8,4.4c4.7-0.4,9.3-1.6,13-5c-1.8,0.1-3.2,1.4-4.8,2.1c-7.5,3.1-15.7,2.8-23-0.9
			C408.4,113.6,407.9,113.1,407,113.2z"/>
		<path class="st4" d="M366.1,60.6c0,0.7,0,1.3,0.1,2c0.3,1.2,0.8,2.3,1.6,3.3V32.6c-1,0.8-0.6,2-0.6,3v26.3
			C366.9,61.5,366.5,61,366.1,60.6z"/>
		<path class="st5" d="M449.7,199.3c-1.3,1.9-2.3,4.1-2.9,6.4C448.3,203.9,449.3,201.7,449.7,199.3z"/>
		<path class="st6" d="M327,112.8c2.8-1.9,5.3-4.3,7.2-7.3c0.9-1.4,2.4-2.2,4-2.1c9,0.1,17.9,0,26.9,0.1c2.2,0,2.9-0.6,2.8-3
			c-0.1-8.4-0.1-17,0-25.4c0-2.2-0.6-2.9-2.7-2.9c-8.9,0.1-17.7,0.1-26.6,0c-1.1,0-2.5,0.4-3.3-0.9l0,0c-4-5.4-8.6-9.9-14.9-12
			c-20-6.5-38.5,11.5-35.4,33.1c1.1,8,5.2,15.2,11.3,19.6c0.4,0.3,0.7,0.7,0.9,1.1c0.7,0.6,1.5,0.9,2.4,1
			C309.1,119.2,318.1,118.5,327,112.8z"/>
		<path class="st0" d="M310,170.9c5,6,9.9,12,14.9,18c3.6,4.3,7.2,8.4,10.9,12.8c0.5,0.4,0.9,1.4,1.8,1c0.7-0.4,0.7-1.3,0.7-2.1
			c-0.2-14.5-0.1-29.2-0.1-43.7c0-2.9-0.1-5.7,0.1-8.5s-0.6-3.6-3.2-2.7c-5.1,1.9-10.4,3-15.7,3.6c-9.4,0.3-18.7,0.1-27.7-3.2
			l0.1-0.1c-0.3-0.2-0.6-0.3-0.9-0.3c-1,0.1-1.4,0.7-0.9,1.7c2.2,2.6,4.5,5.1,6.7,7.7C301.4,159.9,305.9,165.3,310,170.9z"/>
		<path class="st0" d="M399.9,149.5l15,32l6.3,13.6c1.2-0.1,1.2-1.1,1.5-1.8c6.6-14.1,13.1-28.3,19.7-42.4c0.3-0.7,0.7-1.3,1.1-2
			c0.7-1.3,2.1-3.1,1.4-4.1c-0.9-1.3-2.5,0.4-3.7,0.8c-12.7,4.2-26.3,4.2-39,0.1c-1.3-0.4-2.8-2.3-4-0.9c-1,1.3,1.2,2.6,1.3,4.1
			C399.5,149.1,399.7,149.3,399.9,149.5z"/>
		<path class="st6" d="M366.7,112c-3.7,14.9-13.6,24.1-26.8,31.2h55.7c-12.2-6.8-21.9-15.1-26.2-28.8c-0.5-1.2-0.8-2.6-0.9-3.9
			c0-0.7,0.2-1.6-0.8-1.6s-0.8,0.8-0.9,1.4C367.1,110.8,367,111.5,366.7,112z"/>
		<path class="st1" d="M338.6,148.7c0.7-0.2,1.5-1.9,1.9-0.4c1,3.1,3.3,2.4,5,2.1c3.9-0.8,7.8-0.3,11.7-0.6c1.9-0.1,3.8-0.7,5.8-0.1
			c1.5,0.4,2.1,1.1,2,2.6v98.6c-0.1,0.4-0.1,1,0,1.4c0.3,1.1-0.8,3.1,0.9,3.1c1.3,0,0.7-1.9,0.7-3c0.1-7.8,0-15.6,0-23.4
			c0-27.1,0-54.1,0.1-81.1c0-2.9-0.7-3.7-3.4-3.6c-6.3,0.2-12.5,0.1-18.8,0.1c-2.1,0-4.4-0.4-6,1.8C338.1,147,338.1,148,338.6,148.7
			z"/>
		<path class="st1" d="M301.3,161.3c-0.6,0.1-1.3-0.2-1.7-0.8c-0.9-0.9-1.8-2.6-2.6,0.1c-0.1,0.2-0.7,0.6-0.9,0.4
			c-0.4-0.2-0.5-0.8-0.3-1.2l0,0c0.1-0.1,0.1-0.2,0.2-0.3c1.3-1.2,1.1-2-0.4-2.8c-0.4-0.2-0.8-0.6-1-1c-0.2-2.4-1.6-2.9-3.6-2.8
			c-0.5,0-1.4,0-0.9-1.2c0.7-1.9,0.2-3-1.7-3.6c-0.4-0.1-0.9,0-0.9-0.4c-0.3-3.6-2.9-3-5-3c-3.5-0.1-6.9,0-10.4,0
			c-2,0-4-0.3-5.8,1.4c-1.3,1.2-3,0-4.5-0.4v110.1h0.2V152.1c0-3,1.3-4.1,4.5-2.9s6.4,0.9,9.7,1c1.4,0.2,2.8-0.1,4.1-0.8
			c0.6-0.3,1.3-0.7,1.8,0c1.4,2.1,3.7,1.2,5.5,2c-0.3,0.3-0.6,0.8-0.8,1.2c-2.2,4.7-1.5,5.8,3.4,5.2c2.1-0.2,2.8,0.2,2.2,2.6
			c-0.4,1.6,2.8,5.3,4.2,5.1c1.2-0.1,2.1-0.9,1.7-2.4c-0.1-0.6-0.6-1.2,0.3-1.4s1,0.8,0.9,1.4c-0.1,1.7,0.3,3.3-0.3,5
			c-0.4,1.2-0.3,2.3,1,2.9c1.5,0.7,1.4-0.7,1.6-1.6s0.7-0.9,1.3-0.6c0.8,0.4,0.3,0.9-0.1,1.3c-0.5,0.7-0.8,1.7,0.3,1.8
			c1.6,0.2,3.4,1.2,4.8-0.2c0.8-0.9-0.1-1.8-0.9-2c-2.9-1-3.4-4.4-5.7-6C300.4,162.9,301.2,162.1,301.3,161.3L301.3,161.3z"/>
		<path class="st1" d="M366.7,107.5v-1.4c0-0.8-0.1-1.6-1-1.3c-0.9,0.2,0,1.2-0.6,1.9c-0.6-2-1.9-2.1-3.6-2.1
			c-6.4,0.1-12.9,0.2-19.3-0.1c-1.8-0.1-3.2,2.2-5.1,0.7c-0.3-0.2-1.3,1.3-1.4,2.2c-0.1,0.6,0.2,1.2,0.7,1.3c0.3,0.1,0.6,0,0.8-0.1
			c2.5-1.6,4.9,0.2,7.3,0.1c5.3-0.2,10.6-0.1,15.9-0.1c0.2,1.6-1.6,3.7,0.8,4.5c1.2,0.4,1.7-0.4,1.6-2.3c0.9,2.2,0.4,3.2-1,3.9
			c-0.9,0.4-2.4,0.3-2.3,2.1c0.1,1.4,1.6,1,2.5,1.8c-1.2,1.1-2.5,0.9-3.8,0.6c-3.1-0.9-4.2-0.2-4.9,3.1c-0.9,4.1-0.9,4.1-4.8,3.7
			c-0.9-0.3-1.8,0.1-2.1,1.1c0,0.1,0,0.1-0.1,0.2c0,0.1,0,0.1-0.1,0.2c-0.3,1.4,0.9,1.1,1.6,1.3c1,0.2,1,1,0.3,1.3
			c-1.7,1-2.5,2.9-3.6,4.4c-1.1,1.6-1.4,1.6-2.2,0c-0.3-0.4-0.5-1.2-1.2-0.8s-0.9,1.2-0.5,1.4c1.5,1.1-1.5,3.2,1.3,4.4
			c2,0.9,2.6-0.6,3.6-1c1.9-1,3.7-2.2,5.3-3.7c0.8-0.6,0.8-1.4,0.8-2.3c0-0.4-0.1-1.2,0.5-1.2c3.3,0.3,3.8-3.3,6.1-4.5
			c0.7-0.3,0.5-0.9,0.3-1.6c-0.3-0.9,0.1-2,0.6-2c4.1-0.1,3.8-4.1,5-6.5c0.9-1.8,1.8-3.6,0.5-6c-0.8-1.4,0.8-1.8,2-1.8
			C367.2,108.6,367.2,108.1,366.7,107.5z"/>
		<path class="st1" d="M283.4,76.4c1.3,1.3,2.3,1.7,2.6-0.8c0.2-2.2,2.2-3.7,1.9-6.3c-0.2-1.6,2.3-0.9,2.9-2.3
			c-1.4-0.6-3.3-0.1-3.5-2.6c5.1,0.2,9.3-1.4,12.3-5.9c0.4-0.6,1.1-0.8,1.7-0.4c1.4,0.7,2.6,0.2,2.9-1.2s-1-1.6-2.1-2
			c-3-1.2-6.4,0-8.3,2.9c-1.6,2.6-2.8,4-5.6,4.3c-1.3,0.2-2.2,2.1-2.2,3.8s-0.5,2.3-2.1,2.9c-3.1,1-5.1,4.5-4.6,7
			c0.3,1.6,2.1,1.6,2.4,3.1c0.1,0.9,0.9,1.7,0.9,2.7c-1.1,0.7-2.6-1.4-3,0c-0.5,2-1.4,4.5,0.3,6.4c1.1,1.2,1.4,2,0,3
			c-1.2,0.9-0.4,1.7,0.2,2.4c0.9,1.1,1.2,2.3-0.1,3.3c-0.8,0.6-1.7,1-1.2,2.3s1.8,0.4,2.9,0.7c-0.7,0.9-1.2,1.8-1.8,2.6
			c-1.3,1.7-1.1,3.2,0.4,4.7c1.5,1.4,3.3,0.9,4.6-0.2c3.2-2.7,3-3.3,0.4-6.9c-1.4-1.9-1.1-4.4-1.1-6.5c-0.1-3.8-0.8-7.7-0.1-11.4
			C284.6,80,282.3,78.7,283.4,76.4z"/>
		<path class="st1" d="M291.6,144.7c0.9,0,2.1-2,2.6,0.4c0.1,0.3,0.7,0.6,1.1,0.7c4.9,0.7,9.7,2.7,14.8,1.9c1.3-0.1,2.6-0.1,3.9,0
			c5.1,0.6,10.1-1,15.1-1.8c0.8-0.1,1.9,0.4,2.1-0.8s-1.4-0.7-1.8-1.8c1.1-0.4,2.2-0.9,3.1,0.3c0.4,0.8,1.4,1,2,0.4c0,0,0,0,0.1,0
			s0.1,0,0.1-0.1l0,0c1-0.7,0.1-1.8,0.3-2.7s-0.9-0.8-1.5-0.7c-1.9,0.2-3.7-1-5.8-0.1c-1.1,0.4-2.3,0.3-2.7,2c-0.2,0.8-1,1.2-1.7,1
			h-0.1c-0.9-0.1-0.7-0.9-0.7-1.6c0-1.8-1.4-1.4-2.2-1.2c-4.5,0.7-9.1,0.8-13.6,0.2c-4.6-0.4-9.2,0.6-13.7-0.2
			c-0.8,0-1.6,0.1-2.4,0.4c-1.7,0.3-2.1,1.4-1.2,3C289.9,145.1,290.9,145.2,291.6,144.7C291.6,144.8,291.6,144.8,291.6,144.7
			L291.6,144.7z"/>
		<path class="st1" d="M329.1,235.2c-0.3-2.2-0.5-4.5-0.6-6.8c-0.1-2.2-1.7-2.7-3.2-2.4c-3.3,0.6-4-1-3.5-4.1
			c0.5-2.7-1.3-3.8-3.2-3.6c-2.1,0.3-2.6-0.7-3.1-2.3c-1.5-4.5-3.9-5.4-7.9-3c-1.2,0.7-1.8,1.3-0.3,2.9c3.4,3.8,6.5,8,9.7,11.9
			c1.8,2.1,3.4,4.4,5.8,6.1c1.2,0.8,1,3,2.5,3.8c1,0.6,1.3,2.6,2.7,2C329.4,239.1,329.2,237.4,329.1,235.2z"/>
		<path class="st1" d="M264.6,124.7c2.2,1.6,4.6,2.8,6.3,5.1c1.3,1.8,2.4,3.8,4.3,5c0.5-1.8,0-3.7-1.3-4.9c-1.5-1.6-1.7-4.8-4.8-4.4
			c-0.5,0.1-0.8-1-0.9-1.7c-0.3-1.8,0.6-4-1.6-5.2c-0.4-0.2-0.2-1.1,0.3-1.6c1.8-1.6,1.7-3.6-0.1-4.5c-1.5-0.9-3.9-1.7-4.2,2.7
			c-0.8-1.7-1.3-3.7-1.3-5.5v-9.8c0-1.4,0-2.8-1.7-3.2c-0.6-0.1-1-0.7-1-1.3c0-0.8,0.6-0.9,1.2-0.9s1.4,0,1.4-1
			c0-0.9-0.6-1.6-1.3-1.8c-1.6-0.3-3.3-0.4-5-0.1c-0.9,0.1-0.8,1-0.8,1.7c-0.1,2.8-0.2,5.5,1.9,7.8c1,0.8,1.2,2.3,0.5,3.4
			c-0.9,1.6,0.5,2.9,0.9,4.3c0.9,3.2,2.3,6.1,4.3,8.7c1.2,1.6,1.8,4.1,3.3,5.9C265.1,123.6,264.7,124.3,264.6,124.7L264.6,124.7z"/>
		<path class="st1" d="M288.4,109.7l2.1-1c-0.5,1.4-0.4,3-2.3,1.9c-0.7-0.3-1.5-0.1-2,0.6c-0.5,0.8-0.6,1.8-0.2,2.6
			c1.3,1.9,1.5-1.1,3-0.6c0.4,0.4-0.8,2.9,1.1,2.3s0.2-2.3,0.5-3.6c1.6,0.6,1.4,2.1,1.6,3.2s0,2.3,1.7,2.6c0.8,0.1,1.1,1.1-0.1,1.6
			c-0.8,0.3-1.4,0.8-0.9,1.7c0.4,0.7,0.9,1.3,1.8,0.9c0.7-0.2,1.5-0.2,2.1,0.2c3,1.4,5.6,0.6,8-1.4c0.7-0.6,1.4-1.2,2.1-0.2
			c1.2,1.4,3,2.1,4.8,1.7c4.6-0.7,9.2,0.3,13.9,0.1c1.6-0.1,2.7-0.6,3.1-2.2c0.4-1.7-0.3-2.2-1.8-2.7c-1.7-0.6,0.3-1.6-0.1-2.6
			c-2.2-0.4-3.9,1.3-5.6,2.2c-4.6,2.3-9.3,1.3-14,1.3c-0.5,0-1.2-0.6-1.6-0.1c-1.9,1.9-2.8,0.8-3.5-1.3c-0.8,0.4-0.6,2-1.8,1.4
			c-0.7-0.3-1.2-0.7-1.1-1.8c0.1-1.1-0.8-1.3-1.5-1.8c-2.7-1.6-5.1-3.8-7.1-6.3C289.8,107,289,107.5,288.4,109.7z"/>
		<path class="st1" d="M340.9,33.7c-3.3-2.1-6.9-3.6-10.6-4.1c0.1,0.6,0.7,1.1,0.1,1.6c-0.4,0.3-1,0.2-1.3-0.2
			c0-0.1-0.1-0.1-0.1-0.2c-0.6-0.9-1.1-2.1-2.4-1.6c-1.3,0.6-0.8,2.1-0.8,3.1c-0.1,3.9,1,5,4.5,4.2c2-0.4,3.4,1.4,5.4,0.8
			c0.9-0.1,1.8-0.2,2.7-0.4c1-0.3,2.4-0.7,2.1,1.4c-0.2,0.9,0.6,1,1.1,1.4c0.8,0.8,0.6,1.4-0.5,1.4c-0.8,0-1.5-0.3-1.7,0.9
			c0,0.8,0.3,1.4,0.9,1.8c0.6,0.6,1.8,0.8,2,0.2c0.8-2,3-0.9,4.2-2.3c0.8-0.8,2-0.8,2.7,0.1c0,0,0,0,0.1,0.1
			c0.2,0.2,0.3,0.4,0.4,0.7c0.3,0.7,0.7,1.3,1.5,0.9c0.8-0.4,0.2-1.2,0-1.9c-0.8-2.7-3.3-3.6-5.2-4.3c-1.2-0.4-2-0.4-2.7-1.8
			C342.6,34.8,341.8,34.2,340.9,33.7z"/>
		<path class="st1" d="M360.1,49c-1.4,0.3-1.6,2.9-2.7,2.6c-1.7-0.7,0.2-2.3-0.2-3.7c-0.6-1.7-1.7-3.1-3-4.1
			c-1.1-0.9-1.5,0.3-1.4,1.3c0.3,2.3,0.4,4.8,1.3,6.8c0.7,1.4,0.7,2.3-0.1,3.3c-0.5,0.7-1,1.3-0.2,2.1c0.6,0.6,1.4,0.8,2.1,0.3
			c1.5-0.8,3.1-0.1,4.7-0.1c1.4,0,1.7,1.2,0.8,2c-2.1,1.9-1,4.2-1.2,6.3c-0.1,0.4,0.3,0.9,0.3,1.4c0.1,1.2-1.1,2.8,0.2,3.6
			c1.6,0.8,3.5,0.3,5.2,0.2c0.5,0,0.8-0.4,0.9-1s0-1-0.4-1c-3.5,0.2,0.6-2.4-1-2.9c1-2.6,0.7-4.8-1.9-6.2c-1.2-0.7-0.7-2.2-0.5-3.2
			c0.3-2.2-0.3-2.9-2.4-2.7c-0.5,0.1-1.4,0.6-1.6-0.6c-0.1-0.8,0.2-1.2,0.9-1.6C361.8,51.3,359.1,50,360.1,49L360.1,49z"/>
		<path class="st1" d="M335.3,71.1h2.8c2.3,0,4.3-0.1,3.2-3.6c-0.2-0.7,0.4-1,0.7-1.4c0.8-1,0.8-2.6,0-3.6c-0.8-1.1-2.2-1.3-3.2-0.6
			l0,0c-1.2,1.1-2.5,0.2-3.7,0.7c-0.4,0.1-1.2-0.3-1.1-0.7c1.4-2.6-1.5-2.9-1.9-4.4c-0.7-2.6-1.8-2.4-3.3-0.6
			c-0.3-1.1-0.3-2.8-1.6-2.4c-1.7,0.3-3.6-0.2-5,1.2c-0.7,0.7-0.2,2.2,0.1,2.4c1.7,1,3.2,2.3,5.2,2.7c1.6-1.8,2.8-1.7,3.5,0.3
			c0.4,0.9,0.7,1.8,0.7,2.8c0,1.1,0.2,0.8,1.1,1C335.9,65.9,335.4,68.7,335.3,71.1L335.3,71.1z"/>
		<path class="st1" d="M303.3,27.9c-6.1,0.3-12,2.1-17.3,5.3c-0.1,1.1-2.2,1.2-1.4,2.8c0.4,0.8,1.2,0.8,2,0.8c1,0,1.1-0.9,1.4-1.6
			c0.3-0.7,0.7-1.4,1.6-1.2c1.1,0.1,0.6,1,0.7,1.6c0.2,1,0.9,1.3,1.9,1.3c1.2,0,2.4,0.1,3.6,0.3c1.1,0.2,2.3-0.2,1.8-2
			c-0.2-0.7-0.3-1.2,0.4-1.4s0.8,0.6,1,1.1c0,0.8,0.6,1.3,1.3,1.3l0,0h0.3c0.8-0.1,1.5-0.9,1.6-1.8c0.1-2.2-0.2-4.4,1.9-5.9
			C304.3,28.4,303.7,27.9,303.3,27.9z"/>
		<path class="st1" d="M257.6,66.1c1-1.1,2.5-1.6,3.9-1c1.7,0.6,3.5-0.1,5.2-0.6c0.7-0.2,1.2-0.6,1.1-1.4c-0.3-1.7,0.3-3.2,0.6-4.9
			c0.3-1.4,0.4-2.9-1.5-3.1c-0.5-0.1-1-0.1-0.9-0.8c0.1-0.3,0.4-0.7,0.7-0.6h0.1c1.7,0.1,1-1.2,1.1-2.1c0.1-0.7-0.3-1.4-0.9-1.6l0,0
			c-0.9-0.1-1.7,0.4-2,1.3c-0.9,2.1-1.7,4.2-3.6,5.7c-0.2,0.1-0.3,0.6-0.3,0.8c0.7,3.2-1.9,4.7-3.2,6.7
			C257.8,64.8,257.8,65.4,257.6,66.1z"/>
		<path class="st7" d="M338.6,148.7v-2.3c-0.1-1.4-0.2-2.7-2.1-2.3l0,0c-4.5,2.1-9.3,3.6-14.2,4c-1.1,0.2-2.2,0.3-3.3,0.6
			c-0.2,0.1-0.2,0.2-0.2,0.4s0.1,0.2,0.2,0.2c5.4-0.2,10.7-1.4,15.7-3.4c2.3-0.9,2.8-0.3,2.8,2.2c-0.1,17.4-0.1,34.8,0,52.3
			c0,1.7-0.2,2.4-1.8,1.2c0.4,1.1,0.8,2.3,2.1,2.3c0.8,0,0.5-1.1,0.7-1.7c0.6-0.7,0.6-1.7,0.1-2.3l-0.1-0.1
			C338.6,182.7,338.6,165.8,338.6,148.7z"/>
		<path class="st1" d="M325.8,191.1v11.5c0,0.9,0,1.8,1.2,1.9c0.9,0.1,1.6,0.8,1.8,1.7c0.4,1.1,0.7,2.4,2.3,1.8
			c1.9-0.9,3.7-2,4.4-4.2c0.2-0.6-0.4-0.8-0.9-0.9c-2.8-1.1-2.6-1.6-3.7-4.7c-0.7-2-2.6-3.4-3.9-5.2
			C326.6,192.4,326.2,191.7,325.8,191.1z"/>
		<path class="st1" d="M309.2,176.1c0.2-1.3,2.4-0.9,1.5-2.4c-0.3-0.6-1.4-1.9-1.9-1.1c-0.8,1.3-3.6,0.2-3.2,3
			c0.6,2.7,2.9,4.3,5.3,4.1c2.3-0.2,4.5,1,5.6,3.2c-0.3,0-0.5,0.1-0.8,0.1c-0.7-0.1-0.7-1.7-1.7-1s-0.7,1.6-0.7,2.4
			c-0.1,0.9,0.5,1.8,1.3,1.9h0.1c1.7,0.2,3.6-0.3,5.1,1c0.1,0.1,0.7-0.1,0.9-0.4c0.2-0.3,0.2-0.8-0.1-1l0,0c-2.6-3-5-6.2-7.7-9.1
			C312.1,175.5,310.5,177.2,309.2,176.1z"/>
		<path class="st1" d="M270.9,51.7c3,0.1,4.4-1.3,4.4-4.5c0-2.7,2.6-3.4,3.1-5.8c0.1-0.7,1.1,0.1,1.5,0.7c0.5,0.8,1,1.8,1.9,0.6
			c0.7-0.8,0.7-2,0-2.8l-0.1-0.1l-0.2-0.2c-1.8-1.6-3.2-1.1-4.5,1.2c-0.7,1.2-1.6-0.1-2,0.3c-1.4,1.6-2.9,3.2-2.2,5.7
			c0.1,0.4,0.4,1-0.1,1.2s-1.1,0.2-1.6,0c-0.6-0.2-0.4-0.8-0.1-1.2s0.8-1,0-1.4c-0.6-0.3-1,0.2-1.4,0.7c-1,1.1-1.3,2.9-0.6,4.3
			C269.1,51.6,270.3,51.7,270.9,51.7z"/>
		<path class="st1" d="M258.8,75.3c0.5-0.1,0.6,0.3,0.9,0.7c0.5,0.6,1.1,1.3,1.8,0.6c0.7-0.8,0.7-2-0.1-2.3c-2.4-1-1.4-2-0.4-3.4
			s-0.2-2.4-1.2-3.1c-1.5-1.1-1.6,0.6-2.1,1.3c-1.7,2.6-2.9,5.5-3.3,8.7c-0.1,0.7-0.6,1.7,0,1.9c1.2,0.7,2.5-0.1,3.7-0.2
			c0.5-0.1,0.9-0.7,0.9-1.2c0-0.1,0-0.2-0.1-0.3C258.4,77,258.4,76,258.8,75.3z"/>
		<path class="st8" d="M399.9,149.5c0-1.7-1.3-2.8-1.7-4.9c7.5,3.1,15.4,4.7,23.4,4.7s15.8-1.6,23.3-4.7c-0.5,1.7-1,3-1.4,4.3
			c1.4-0.6,1.2-2.3,2.1-3.3c0.3-0.6,0.3-1.2-0.1-1.7c-0.5-0.6-1-0.1-1.5,0.1c-7.9,3.3-16.4,4.8-24.9,4.2c-6.4-0.3-12.7-1.1-18.7-4
			c-0.8-0.3-1.9-1.3-2.8-0.2s0.2,2,0.7,2.9S398.6,149.1,399.9,149.5z"/>
		<path class="st1" d="M286.8,135.7c-1.3,0.3-1.9-0.6-2.4-1.6c-0.4-1.1-1.6-1.7-2.6-1.2c-1.7,0.7-1.4,2.6-2,4c-0.5,1.1,0,1.6,0.9,2
			c0.8,0.3,1.5,0.9,2.1,1.4c1.1,0.8,2.1,1.1,3-0.4c0.5-0.7,1.2-1.3,1.9-1.8c0.7-0.4,1.2-1,0.9-1.9
			C288.3,135.4,287.6,135.3,286.8,135.7z"/>
		<path class="st1" d="M301.9,206.6c-0.3-2-0.2-4,0.3-5.9c0.4-0.8,0.1-1.9-0.6-2.3c0,0,0,0-0.1,0c-0.2-0.1-0.3-0.1-0.5-0.2
			c-1.4-0.3-1.4,0.7-1.6,1.8c-0.2,1.3-1.3,1.4-1.6,0.3c-0.5-1.9-2.9-1.9-3-4c0-0.4-0.7-0.7-1.1-0.3c-0.4,0.3-0.3,0.9-0.1,1.3
			c0.6,2.1,1.9,3.9,3.7,4.9c1.1,0.4,1.8,1.7,1.6,2.9c-0.1,0.8,0.9,1.9,1.5,2.7c0.3,0.6,1,0.8,1.5,0.4
			C302.2,207.7,302.2,207.2,301.9,206.6z"/>
		<path class="st1" d="M339.1,246.5c-0.9,0.1-2-0.3-2.5,1.3c-0.7,2.1-0.7,3.8,1.3,4.7c0.9,0.4,1.9,0.4,2.1,1.9
			c0.1,0.7,0.7,1,1.3,0.9l0,0c0.9-0.1,0.8-1,0.8-1.7c0-1.1,0.1-2.1,0.3-3.2C343,247.6,342.1,246.5,339.1,246.5z"/>
		<path class="st1" d="M289.3,199.4c-1.3-1.9-1.1-3.7-0.1-4.3c1-0.7,1.9,1,2.8,2.1c0.1-1.3,0.7-2.7,1.6-3.6c0.6-0.7,1.1-1.4,0.5-2.3
			c-0.4-0.7-1-0.9-1.7-0.8c-1.2,0.4-0.2,1.3-0.2,2c0,1.4-0.6,1.4-1.6,0.9c-0.9-0.7-1.7-1.6-2.2-2.6c-0.4-0.6-0.9-1.1-1.6-0.7
			c-0.6,0.2-1.1,0.9-1.2,1.6c-0.2,0.6,0.1,1.2,0.6,1.4h0.1c0.1,0,0.2,0.1,0.3,0c1.7,0,1.1,0.8,0.6,1.6
			C285.6,197.2,285.7,197.5,289.3,199.4z"/>
		<path class="st1" d="M335.9,245.2c0-3.7-1.4-5.1-4.1-5c-1.1,0.1-2.2,0.4-2.4,1.6c-0.2,1.2,0.5,2.4,1.6,2.8h0.1h0.2
			c1.3,0,1.3,1.3,2.2,1.4c0.9,0.1-0.4,1.9,1.1,1.3C335.5,247.1,336.1,246.1,335.9,245.2z"/>
		<path class="st1" d="M304.8,213c1.1-1.6,2.3-3,3.6-4.3c0.7-0.4,0.9-1.6,0.4-2.2c0,0,0,0,0-0.1l-0.3-0.3c-0.8-0.9-1.3-0.1-1.8,0.6
			c-0.3,0.4-0.7,0.8-1.2,0.4c-0.5-0.2-0.7-0.9-0.4-1.3v-0.1v-0.1c0.1-0.7,0.4-1.6-0.5-1.6c-1.2-0.1-0.9,0.9-0.7,1.7v0.3
			c0.2,1.4-2.1,2.7-1.1,3.6C303.9,210.4,304.6,211.7,304.8,213z"/>
		<path class="st9" d="M327,112.8c-2.5,0.3-4.3,2.2-6.6,2.9c-6.5,2.1-13.4,1.7-19.6-1.3l-1.3-0.3c-0.2,0.1-0.2,0.2-0.2,0.4
			c0,0.1,0.1,0.2,0.2,0.2c8.5,4.4,17,4.5,25.4-0.1C325.6,114.2,326.6,113.6,327,112.8z"/>
		<path class="st1" d="M289.4,202.7c-0.1-0.9,0.1-2.4-1.2-2.6c-1.1-0.1-2.1,0.8-2.2,2l0,0c0,0.2,0,0.6,0.1,0.8
			c0.2,1.3-1.7,3.1,0.7,4C288.5,207.5,289.4,206,289.4,202.7z"/>
		<path class="st10" d="M319.1,149.5v-0.6c-8.9,0.2-17.8,0.1-26.4-2.9c-0.3-0.1-0.7,0.1-1.1,0.1c4.4,2.3,9.1,3,13.9,3.4
			C310,149.7,314.5,149.5,319.1,149.5z"/>
		<path class="st11" d="M310,170.9c0.1-1.7-1.2-2.7-2.1-3.7c-3.3-4.1-6.8-8-10.2-12c-0.3-0.3-0.8-0.3-1.3-0.4
			c1.6,2.1,3.2,4.2,4.7,6.3l0,0C304.2,164.5,307.1,167.5,310,170.9z"/>
		<path class="st1" d="M324.1,191.6c0.3-1.8-1.1-2.6-2.3-3.4c-0.6-0.4-1.4-0.2-1.8,0.4l0,0c-0.5,0.7-0.5,1.3,0.2,1.8
			c0.7,0.3,1.1,1.1,1.1,2c0,1.1,0.4,1.7,1.5,1.6C324.2,193.8,324.1,192.7,324.1,191.6z"/>
		<path class="st1" d="M331.1,115.2c0.7,0,1.6-0.1,1.6-0.8c-0.1-1.8,1-1.4,2-1.6c0.5,0,1-0.1,1.1-0.7c0.1-0.4-0.1-0.9-0.5-1l0,0
			h-0.5c-1.4,0.7-1.4-2.1-2.6-1.1c-0.9,0.9-1.7,2-2.3,3.2C329.4,114.2,329.8,115.2,331.1,115.2z"/>
		<path class="st1" d="M341.2,202.2c-0.4,0.4-1,0.9-1.5,1.4c-1,1-1.7,2.3-3.5,1.9c-0.9-0.2-1,0.9-0.6,1.3c0.7,0.7,1.6,1,2.5,1
			c0.8,0.1,1.5-0.4,1.6-1.2c0,0,0,0,0-0.1c0.1-1.2,0.4-2.1,1.8-1.9c0.7,0.1,1.1-0.7,0.9-1.4C342.4,202.8,342,202.5,341.2,202.2z"/>
		<path class="st12" d="M366.7,107.5c0,0.6-0.1,1.2-0.1,1.8c0,1,0.1,2,0.1,3c0.3-0.9,0.5-1.8,0.9-2.9c1.4,1.6,0.5,3.9,1.9,5.2
			c-0.2-2.2-0.4-4.4-0.7-6.5C368.6,106.4,367.8,105.9,366.7,107.5z"/>
		<path class="st1" d="M322.4,27.9h-5.5C319.6,31,321.2,31,322.4,27.9z"/>
		<path class="st1" d="M320.7,56.8c0-0.9-0.7-1.7-1.5-1.7c-0.9,0-1.9,0.4-1.9,1.3c0,1.4,1.3,0.9,2.1,1.1
			C320,57.8,320.8,58.3,320.7,56.8z"/>
		<path class="st1" d="M311.4,28.4c1,1.6,3,1.9,4.4,0.9c0.2-0.2,0.3-0.4,0.2-0.8C315.8,27.9,314.2,27.9,311.4,28.4z"/>
		<path class="st1" d="M310.9,57.1c0.6-0.2,1.8,0.4,1.7-0.8c-0.1-1-1.1-1.3-2-1.2s-2,0.1-1.9,1.3C308.8,57.7,310.1,56.7,310.9,57.1z
			"/>
		<path class="st13" d="M289.8,147.2c0.1-0.8,0.4-1.3,1.2-1.3c-0.2-1.6-1.6-1.1-2.3-1.7c-0.9,0-1.3,0.3-0.7,1.2
			C288.6,146.1,289.2,146.7,289.8,147.2z"/>
		<path class="st1" d="M338.6,199.7v2.3c0.4-0.6,0.8-1,1.2-1.6s0.8-1.1,0.3-1.6C339.3,198.3,339.2,199.7,338.6,199.7z"/>
		<path class="st1" d="M287.6,104.2v3.2C289.1,106.3,289,105.3,287.6,104.2z"/>
		<path class="st1" d="M327.4,61.1c0.4,1.1,1.2,1.9,2.2,2.1c0-1.2-1-2.2-2.1-2.1H327.4z"/>
		<path class="st1" d="M309.8,28.4c-0.1-0.4-0.4-0.6-0.8-0.6s-0.8,0-0.8,0.6s0.4,0.6,0.8,0.6S309.7,29,309.8,28.4z"/>
		<path class="st14" d="M288.7,144.1c0.8,0.6,1.5,1.1,2.3,1.7c0.2,0,0.4,0,0.6-0.1c0-0.3,0-0.8-0.1-1.1l-2.2-0.7
			C289.1,144.1,288.9,144.1,288.7,144.1z"/>
		<path class="st1" d="M336.5,144.1c-0.3-0.9,0.9-1.8-0.2-2.7c-0.6,0.7-0.6,1.9,0.1,2.6l0,0C336.5,144.1,336.5,144.1,336.5,144.1
			L336.5,144.1z"/>
		<path class="st15" d="M299.4,114.6V114c-0.7-0.3-1.3-0.9-2.1-0.8C297.8,114.1,298.5,114.5,299.4,114.6z"/>
	</g>
</g>
<polyline class="st16" points="205.4,146.6 6,146.6 6,829.9 706,829.9 706,146.6 537,146.6 "/>
</svg>
