<svg xmlns="http://www.w3.org/2000/svg" viewBox="0 0 962.92 190.28"><defs><style>.cls-1{fill:#fff;}</style></defs><g id="Layer_2" data-name="Layer 2"><g id="Layer_1-2" data-name="Layer 1"><path class="cls-1" d="M36.77,56.62c-.09,1.56-.25,3.12-.26,4.69q-.1,40.72-.18,81.47a26.12,26.12,0,0,0,5.6,16.7C48,167.22,53.81,175.14,59.7,183c.95,1.26,1.77,2.63,3.13,4.68H0c3.56-4.85,6.54-9,9.57-13,3.69-4.94,7.24-10,11.17-14.74,4.52-5.48,5.91-11.74,5.89-18.61-.11-32.32,0-64.64-.39-97a28.16,28.16,0,0,0-4.42-13.82C17.25,23.24,11.57,16.66,5.64,8.86c2.44-.19,3.94-.4,5.45-.4,16.49,0,33,.13,49.48-.1,4.09,0,6.17,1.15,7.89,5,15,33.45,30.21,66.79,45.37,100.15.66,1.45,1.45,2.84,2.73,5.3,1.32-3,2.27-5.06,3.1-7.14,13.05-32.64,26.18-65.25,39-98,1.63-4.15,3.78-5.38,8.07-5.32,17.31.23,34.61.09,53.35.09-2.57,3.09-4.09,5.61-6.23,7.38-10.92,9-13.78,20.26-13.43,34.31.95,37.46.39,75,.25,112.46a13.8,13.8,0,0,0,4.69,10.95c4.57,4.32,8.69,9.12,13.23,14H135.79c2.78-2.77,4.76-5.35,7.3-7.14,9.24-6.53,12-15,11.78-26.4-.73-33-.08-66,0-99a2.87,2.87,0,0,0-1.36-2.36Q126.25,120.94,99,189.22l-1.33.36L37.79,56.4Z"/><path class="cls-1" d="M885.84,187.74c-2.87.3-4.27.57-5.66.58-15.33,0-30.67-.11-46,.08-4,0-5.12-1.24-5.08-5.17.27-24.16.56-48.31.25-72.46-.07-6.38-1.62-12.9-3.53-19A14.49,14.49,0,0,0,811,81.21c-7.86.25-14.13,3.67-18.21,10.48-.78,1.3-.7,3.23-.7,4.86,0,24.17-.17,48.33.13,72.49,0,2.91,2,6.14,3.83,8.6,2.75,3.62,6.24,6.68,9.89,10.47-1.85.22-3.09.48-4.33.49-15.34,0-30.67-.12-46,.12-4.37.06-5.23-1.66-5.22-5.59.13-32.67,0-65.33.19-98,0-5.06-1.26-9-4.93-12.42-3.24-3.06-6.11-6.52-9.89-10.61a49.44,49.44,0,0,1,4.93-.58c15.5,0,31,.07,46.5-.08,3.63,0,5.1,1,4.93,4.8A133.77,133.77,0,0,0,792.59,84C801.4,68.26,814,59.39,832.37,59.6c19.2.23,30.26,10.72,35.88,28,4.37-5.74,7.83-11.49,12.43-16.11C893.87,58.26,916,55.63,931,64.93c8.09,5,12.51,12.71,15.41,21.46,4,12.09,3.93,24.6,3.75,37.12-.22,15.16-.6,30.31-.58,45.47,0,2.35,1.38,5,2.88,7,3.14,4,6.8,7.7,10.45,11.75a31.08,31.08,0,0,1-3.67.38c-15.34,0-30.67-.11-46,.11-4.23.06-5.37-1.39-5.32-5.46.27-23.82.54-47.65.3-71.47A69.24,69.24,0,0,0,905,92.67c-2-6.68-6.69-11.11-14.15-11.49-8.45-.43-15.25,2.95-20.4,9.54-.7.89-.64,2.51-.62,3.79.35,20.12.78,40.24,1.11,60.37.08,5-.65,10.06,0,15,.36,2.81,2.34,5.7,4.29,7.94C878.13,181.08,881.62,183.84,885.84,187.74Z"/><path class="cls-1" d="M445.92,77.74c0-8.91,0-16.83,0-24.75s.36-16-.18-24a17.18,17.18,0,0,0-3.85-9.09c-3-3.65-6.94-6.52-10.48-9.72l.8-1.8,54.87-6.5V8.3c0,52.3.08,104.6-.1,156.9,0,5.27,1.16,9.32,5.27,12.66,3.2,2.6,6.09,5.59,9.12,8.41l-.5,1.4c-1.48.15-3,.42-4.45.43-15.16,0-30.32-.1-45.47.1-4,.05-5.35-1.16-5.11-5.13.3-4.94.08-9.91.08-14.88l-1.74-1.37a14.55,14.55,0,0,1-.81,2.77c-15.12,28.52-55.69,25.81-72,1.72C359,153,357.24,132.5,360,111.36c2.26-17.34,9.22-32.65,24.09-42.64,15.12-10.16,31.67-13.33,48.49-4,4.29,2.39,7.3,7.08,10.9,10.7C444,76,444.58,76.49,445.92,77.74Zm0,44.4q0-16.74,0-33.48c0-7.09-2.11-10.13-8.79-12.65-11.55-4.35-22.75.78-28.53,13.31-6.56,14.23-6.76,29.36-5.8,44.6.6,9.56,2.28,18.9,7.62,27.12,7.25,11.18,22,13.24,31.51,4.11a13.68,13.68,0,0,0,3.83-8.53C446.18,145.14,445.92,133.64,445.91,122.14Z"/><path class="cls-1" d="M585.44,61.52h28.39c7,0,14,.21,21-.1,4.27-.19,5.3,1.45,5.29,5.48-.05,24.82-.13,49.65.4,74.46a60.81,60.81,0,0,0,3.86,18.93c2.62,7.28,9.11,10,16.68,8.26,8.64-1.93,14.49-8,14.5-15.33,0-22.82-.09-45.65.11-68.47.05-5-1.22-9-5-12.39-3.25-3-6.06-6.37-9.82-10.38,2.61-.23,4-.47,5.43-.47,15.16,0,30.33.16,45.48-.1,4.61-.08,5.52,1.62,5.5,5.82-.15,32.82,0,65.64-.2,98.46,0,5.31,1.31,9.3,5.52,12.53,3.16,2.41,6,5.18,9,7.78l-.84,1.64a33.78,33.78,0,0,1-4,.46c-15.49,0-31-.11-46.48.09-4,.05-5.26-1.26-5.07-5.18a69.13,69.13,0,0,0-1.11-17.35c-1.17,1.91-2.29,3.85-3.5,5.74C660,188,638,194.89,621.07,187c-9.23-4.26-15.49-11.4-18-20.94a130.92,130.92,0,0,1-4.46-28.44c-.56-18.13,0-36.31.36-54.46.09-4.39-1.12-7.72-4.37-10.56-3.46-3-6.75-6.26-10.12-9.4Z"/><path class="cls-1" d="M343.38,146.05c-3.06,21.08-18.82,38.51-40.08,42.54-21.08,4-40.89.91-57.69-13.69a52.36,52.36,0,0,1-16-26.06,84.9,84.9,0,0,1,1.3-51.2c5.48-16,16.27-27.24,32.23-33.35,14.32-5.47,29-6.06,43.78-2.84,23.51,5.14,37.68,23,38.16,47.87.24,12.78,1.58,10.5-10.4,10.59q-29.74.21-59.49-.07c-4.63-.06-6.5,1.33-5.73,6,.64,3.78.85,7.64,1.72,11.35,6.3,26.7,34.06,37.89,57.05,22.68C333.94,156.08,338.49,150.57,343.38,146.05Zm-55.64-32.58c4.82,0,9.65-.12,14.46,0,3.21.11,4.59-1.09,4.36-4.34-.59-8.28-.72-16.61-1.76-24.83a39.08,39.08,0,0,0-4.09-12.72,13,13,0,0,0-21.4-2.81c-2.41,2.61-4.87,5.94-5.51,9.28-2,10.56-3.16,21.28-4.59,31.94-.36,2.63,1.13,3.49,3.57,3.45C277.77,113.41,282.76,113.46,287.74,113.47Z"/><path class="cls-1" d="M510.92,61.52h33.92c5.33,0,10.67.21,16-.08,4-.21,5.09,1.28,5,5.17-.17,19.32-.08,38.65-.08,58,0,14,.19,28-.1,42-.1,5.09,1.14,9,5.25,12.14,3.09,2.38,5.73,5.36,9.32,8.8-2.35.29-3.58.57-4.8.57-15.33,0-30.66-.1-46,.11-4.18.06-5.36-1.31-5.34-5.42.14-32.49,0-65,.18-97.47,0-5.41-1.18-9.65-5.28-13.28-3.17-2.8-5.88-6.13-8.79-9.22Z"/><path class="cls-1" d="M545,0c12.63.05,22.3,9.85,22.34,22.63a22.38,22.38,0,0,1-22.73,22.86c-12.56-.07-22.27-10-22.3-22.76C522.3,9.72,532.06-.06,545,0Z"/></g></g></svg>